<?xml version="1.0" encoding="UTF-8"?>
<svg version="1.1" xmlns="http://www.w3.org/2000/svg" width="1425" height="313">
<path d="M0 0 C1.75570312 0.01353516 1.75570312 0.01353516 3.546875 0.02734375 C4.43890625 0.03894531 5.3309375 0.05054688 6.25 0.0625 C5.88648438 0.53558594 5.52296875 1.00867188 5.1484375 1.49609375 C-12.17118889 24.27806385 -17.89015304 47.44676178 -14.0625 75.9375 C-10.50782653 94.82947089 -2.87096185 112.15123178 5.7890625 129.18359375 C9.11324203 135.73327824 12.18776836 142.38699246 15.25 149.0625 C15.69988281 150.01125 16.14976562 150.96 16.61328125 151.9375 C28.10804881 176.42171078 34.46540225 203.00765079 31.25 230.0625 C31.17152832 230.7323291 31.09305664 231.4021582 31.01220703 232.09228516 C29.12237756 246.87868244 23.65098819 260.41832591 14.25 272.0625 C13.64542969 272.82949219 13.04085937 273.59648437 12.41796875 274.38671875 C2.2066274 286.63616896 -12.57393163 295.66004641 -28.60107422 297.3659668 C-31.47034927 297.49778231 -34.31543648 297.53045359 -37.1875 297.5 C-38.19449951 297.49242676 -39.20149902 297.48485352 -40.23901367 297.47705078 C-51.65913358 297.22398868 -61.60430752 294.14434152 -70.75 287.0625 C-70.75 286.4025 -70.75 285.7425 -70.75 285.0625 C-71.33910156 284.80855469 -71.92820312 284.55460937 -72.53515625 284.29296875 C-84.96473206 277.38764886 -91.37765624 260.08604862 -95.05078125 247.30322266 C-95.44280039 245.90338764 -95.82540024 244.500882 -96.19873047 243.09594727 C-96.70891629 241.21404394 -97.2834327 239.34990027 -97.86328125 237.48828125 C-99.42683598 231.08686741 -99.23709682 224.42763217 -99.25 217.875 C-99.25201416 217.16552216 -99.25402832 216.45604431 -99.25610352 215.72506714 C-99.21534221 194.42638416 -92.82817757 173.71075331 -80.328125 156.265625 C-77.56304164 152.40545913 -75.05563433 148.36252538 -72.484375 144.37109375 C-71.91203125 143.60925781 -71.3396875 142.84742188 -70.75 142.0625 C-70.09 142.0625 -69.43 142.0625 -68.75 142.0625 C-68.34394531 141.19238281 -68.34394531 141.19238281 -67.9296875 140.3046875 C-66.74909947 138.0607884 -65.42650689 136.18918506 -63.875 134.1875 C-61.9667777 131.70215682 -60.17063523 129.21290626 -58.5 126.5625 C-57.9225 125.7375 -57.345 124.9125 -56.75 124.0625 C-56.09 124.0625 -55.43 124.0625 -54.75 124.0625 C-54.481875 123.505625 -54.21375 122.94875 -53.9375 122.375 C-52.64100504 119.85024666 -51.32523677 117.42535516 -49.75 115.0625 C-49.09 115.0625 -48.43 115.0625 -47.75 115.0625 C-47.481875 114.464375 -47.21375 113.86625 -46.9375 113.25 C-45.76506533 111.09025192 -44.55630718 109.70459744 -42.75 108.0625 C-43.39644369 111.36236952 -44.6159159 113.77001592 -46.375 116.625 C-46.91511719 117.50414063 -47.45523438 118.38328125 -48.01171875 119.2890625 C-50.8994559 123.89646334 -53.81577019 128.48458785 -56.75 133.0625 C-58.5037524 135.81616467 -60.25545022 138.57109411 -62.00390625 141.328125 C-63.14607493 143.11675604 -64.29932321 144.89837221 -65.46484375 146.671875 C-75.78910984 162.49773413 -84.24503744 179.12888687 -86.75 198.0625 C-86.95625 199.2175 -87.1625 200.3725 -87.375 201.5625 C-88.79237438 214.79132753 -87.3449613 228.55621402 -82.75 241.0625 C-82.41226563 241.99320313 -82.07453125 242.92390625 -81.7265625 243.8828125 C-76.79057177 257.11432956 -76.79057177 257.11432956 -67.75 267.0625 C-67.75 267.7225 -67.75 268.3825 -67.75 269.0625 C-67.09 269.0625 -66.43 269.0625 -65.75 269.0625 C-64.698125 270.17625 -64.698125 270.17625 -63.625 271.3125 C-57.12130698 277.53342376 -48.81337164 280.05249598 -39.9375 280.375 C-25.46377533 280.0203605 -13.64124947 273.21869365 -3.75 263.0625 C8.64047623 249.46395233 10.03955821 229.53255985 9.25 212.0625 C7.62279695 192.28036012 -0.19227634 173.13182135 -9.671875 155.8984375 C-11.86026733 151.90699122 -13.86964298 147.83564474 -15.875 143.75 C-17.98660605 139.46395153 -20.13716114 135.29681869 -22.6875 131.25 C-27.0260452 124.25617031 -30.30509295 116.68223668 -33.74853516 109.22119141 C-34.57177993 107.4466594 -35.41414489 105.68100998 -36.26171875 103.91796875 C-46.60291208 82.15905408 -52.72438514 54.55904223 -44.75 31.0625 C-38.86340389 18.1918068 -30.15304505 8.34403002 -16.875 3.125 C-14.84509008 2.40352599 -12.80435639 1.71109761 -10.75 1.0625 C-10.10289062 0.85625 -9.45578125 0.65 -8.7890625 0.4375 C-5.84655505 -0.10365079 -2.98787905 -0.02987879 0 0 Z " fill="#9A8330" transform="translate(626.75,6.9375)"/>
<path d="M0 0 C6.51694937 4.01043038 8.91602585 8.7722755 10.95703125 15.91015625 C11.4375 18.375 11.4375 18.375 11.4375 23.375 C7.4775 24.365 3.5175 25.355 -0.5625 26.375 C-0.830625 24.828125 -1.09875 23.28125 -1.375 21.6875 C-2.16787179 17.71751784 -3.04102045 14.63191109 -5.5625 11.375 C-9.29015292 9.51117354 -13.93392987 10.16620896 -18 10.6875 C-18.7734375 11.0278125 -18.7734375 11.0278125 -19.5625 11.375 C-21.30944911 16.61584732 -21.47317403 21.47776244 -19.0625 26.5 C-15.85355108 30.19029125 -12.29971249 33.23394662 -8.5625 36.375 C12.38963926 54.54007848 12.38963926 54.54007848 13.7109375 66.94140625 C13.97318036 74.67757061 12.50712266 79.80546628 8.4375 86.375 C7.7775 86.375 7.1175 86.375 6.4375 86.375 C6.4375 87.035 6.4375 87.695 6.4375 88.375 C-2.12639665 93.20192357 -8.68546259 94.1022882 -18.30078125 92.04296875 C-20.55865519 91.37613551 -22.4966949 90.49535654 -24.5625 89.375 C-24.5625 88.715 -24.5625 88.055 -24.5625 87.375 C-25.2225 87.375 -25.8825 87.375 -26.5625 87.375 C-32.55544038 80.70977464 -33.9198808 74.08418122 -34.5625 65.375 C-29.92474637 63.48845615 -26.61244191 62.16274325 -21.5625 62.375 C-21.45292969 63.02726562 -21.34335937 63.67953125 -21.23046875 64.3515625 C-20.30426388 69.45698449 -19.35320351 73.90987439 -16.5625 78.375 C-12.85267522 80.84821652 -9.86199556 80.91243695 -5.5625 80.375 C-3.02291766 79.49170357 -3.02291766 79.49170357 -1.5625 77.375 C-0.09226341 72.01913813 -0.50195108 67.45838464 -2.5625 62.375 C-7.0981929 55.49830432 -14.21216429 50.8120973 -20.609375 45.7578125 C-21.96050282 44.6704763 -23.26818909 43.52938541 -24.5625 42.375 C-24.5625 41.715 -24.5625 41.055 -24.5625 40.375 C-25.2225 40.375 -25.8825 40.375 -26.5625 40.375 C-33.72470087 32.67563406 -34.18706291 25.90192355 -33.9375 15.72265625 C-33.63247463 10.59060447 -32.45740806 6.88138855 -28.5625 3.375 C-20.67553812 -2.44098721 -9.07989032 -4.19205664 0 0 Z " fill="#46451C" transform="translate(718.5625,169.625)"/>
<path d="M0 0 C4.29 0 8.58 0 13 0 C13 30.69 13 61.38 13 93 C8.71 93 4.42 93 0 93 C-0.33 92.01 -0.66 91.02 -1 90 C-1.515625 90.474375 -2.03125 90.94875 -2.5625 91.4375 C-6.8970978 94.21608834 -10.72471072 94.25938087 -15.6875 93.25 C-19.53808075 91.79695066 -22.08472128 90.50955753 -24.25024414 86.93798828 C-27.45058901 78.73424209 -27.58082788 70.96328736 -27.46655273 62.28369141 C-27.43746412 59.87202543 -27.44600735 57.46254977 -27.45898438 55.05078125 C-27.44508602 45.47302541 -27.25163176 35.87242518 -21 28 C-16.21242054 24.77116734 -12.59194732 24.46743359 -7 25 C-4.63706998 26.15632746 -2.85016245 27.14983755 -1 29 C-0.67 19.43 -0.34 9.86 0 0 Z M-11.8125 37.125 C-14.4205701 41.24300541 -14.12771635 46.47224863 -14.1328125 51.2109375 C-14.13410156 52.37367187 -14.13539063 53.53640625 -14.13671875 54.734375 C-14.13285156 55.93578125 -14.12898437 57.1371875 -14.125 58.375 C-14.12886719 59.56867188 -14.13273438 60.76234375 -14.13671875 61.9921875 C-14.61740395 72.3390677 -14.61740395 72.3390677 -11.8125 82 C-9.10066283 83.49618602 -7.04539628 83.31075472 -4 83 C-2.68 82.34 -1.36 81.68 0 81 C0 66.81 0 52.62 0 38 C-4.12667027 35.93666487 -7.61945494 34.52242031 -11.8125 37.125 Z " fill="#9B8430" transform="translate(827,67)"/>
<path d="M0 0 C3.88020171 4.21279043 4.43889688 8.80511464 4.41455078 14.38037109 C4.41439972 15.54112152 4.41424866 16.70187195 4.41409302 17.89779663 C4.40377045 19.13550812 4.39344788 20.3732196 4.3828125 21.6484375 C4.3799826 22.92731842 4.37715271 24.20619934 4.37423706 25.52383423 C4.3649602 28.90720099 4.34702183 32.29029326 4.3248291 35.67358398 C4.30429041 39.13262574 4.29521826 42.59169596 4.28515625 46.05078125 C4.26313197 52.82560591 4.22862034 59.60026541 4.1875 66.375 C-0.4325 66.375 -5.0525 66.375 -9.8125 66.375 C-10.1425 47.895 -10.4725 29.415 -10.8125 10.375 C-16.78155078 10.00360932 -16.78155078 10.00360932 -21.8125 12.375 C-21.8125 30.195 -21.8125 48.015 -21.8125 66.375 C-26.1025 66.375 -30.3925 66.375 -34.8125 66.375 C-35.8125 65.375 -35.8125 65.375 -35.93275452 62.74913025 C-35.93053391 61.57886795 -35.92831329 60.40860565 -35.92602539 59.20288086 C-35.92617142 58.55899918 -35.92631744 57.91511749 -35.9264679 57.25172424 C-35.92576885 55.11439697 -35.91797691 52.97715587 -35.91015625 50.83984375 C-35.90829204 49.36153715 -35.90686815 47.88322993 -35.90586853 46.40492249 C-35.90204359 42.50701198 -35.89221352 38.60913851 -35.88116455 34.71124268 C-35.87094992 30.73653667 -35.8663708 26.76182471 -35.86132812 22.78710938 C-35.85059122 14.98305404 -35.83299462 7.17903692 -35.8125 -0.625 C-31.1925 -0.625 -26.5725 -0.625 -21.8125 -0.625 C-21.8125 1.025 -21.8125 2.675 -21.8125 4.375 C-21.28140625 4.02566406 -20.7503125 3.67632812 -20.203125 3.31640625 C-19.49671875 2.86136719 -18.7903125 2.40632813 -18.0625 1.9375 C-17.36640625 1.48503906 -16.6703125 1.03257813 -15.953125 0.56640625 C-10.90688748 -2.24217485 -5.10194686 -2.94779152 0 0 Z " fill="#9B8430" transform="translate(785.8125,93.625)"/>
<path d="M0 0 C6.0299737 5.86700144 6.22999012 12.91702299 6.37905884 20.87376404 C6.39061005 21.99694534 6.40216125 23.12012665 6.4140625 24.27734375 C6.43342865 25.4438295 6.4527948 26.61031525 6.4727478 27.81214905 C6.53230104 31.52052608 6.57883229 35.22893456 6.625 38.9375 C6.66320206 41.45899756 6.70225508 43.98048238 6.7421875 46.50195312 C6.83798282 52.66786471 6.92210363 58.83383736 7 65 C3.04 64.67 -0.92 64.34 -5 64 C-5.66 62.35 -6.32 60.7 -7 59 C-7.78375 59.804375 -8.5675 60.60875 -9.375 61.4375 C-12.78693744 64.76820084 -14.24487695 65.15315191 -18.875 65.1875 C-20.17050781 65.20876953 -20.17050781 65.20876953 -21.4921875 65.23046875 C-24.97375218 64.91051187 -27.0437988 63.98136438 -29.484375 61.4765625 C-33.53974356 55.54370849 -34.1431221 50.05389978 -33 43 C-30.78181931 36.59952269 -26.73966122 31.57180356 -21 28 C-10.68253968 23 -10.68253968 23 -7 23 C-7.14183696 21.24967156 -7.28863429 19.49974466 -7.4375 17.75 C-7.51871094 16.77546875 -7.59992187 15.8009375 -7.68359375 14.796875 C-7.95074584 12.43538247 -8.35371968 10.28098935 -9 8 C-13.7897321 7.76571687 -13.7897321 7.76571687 -18 10 C-18.58189266 12.42521494 -18.58189266 12.42521494 -18.6875 15.125 C-18.75324219 16.03507812 -18.81898438 16.94515625 -18.88671875 17.8828125 C-18.92410156 18.58148438 -18.96148438 19.28015625 -19 20 C-28.41002278 20.18451025 -28.41002278 20.18451025 -33 19 C-32.70702976 12.67184281 -31.75523266 7.23600264 -28 2 C-20.04034987 -4.46721573 -8.86626876 -5.24738355 0 0 Z M-17 38 C-19.52749712 41.59976863 -20.02424585 43.28474742 -19.875 47.6875 C-19.20224998 50.89582343 -19.20224998 50.89582343 -17.75 53 C-15.98297732 54.21023338 -15.98297732 54.21023338 -13.5625 53.9375 C-10.32415263 52.75273877 -9.0737107 51.78095519 -7 49 C-6.51119533 46.0675448 -6.6222688 43.21238137 -6.75 40.25 C-6.76804687 39.45722656 -6.78609375 38.66445312 -6.8046875 37.84765625 C-6.85166918 35.89791652 -6.92340956 33.94880122 -7 32 C-10.96112935 32 -14.15851361 35.46585806 -17 38 Z " fill="#46451C" transform="translate(804,197)"/>
<path d="M0 0 C4.29 0 8.58 0 13 0 C14.35456755 4.06370265 15.34204625 7.32929742 16 11.44921875 C16.2475 12.96999023 16.2475 12.96999023 16.5 14.52148438 C16.7475 16.08866211 16.7475 16.08866211 17 17.6875 C17.33251646 19.75403785 17.66584582 21.82044508 18 23.88671875 C18.24363281 25.39758057 18.24363281 25.39758057 18.4921875 26.93896484 C19.27146914 31.63638465 20.12897786 36.31883513 21 41 C23.21518119 35.25437378 24.04446918 29.36295099 25 23.3125 C25.33251646 21.24596215 25.66584582 19.17955492 26 17.11328125 C26.16242187 16.10604004 26.32484375 15.09879883 26.4921875 14.06103516 C27.27152572 9.36327429 28.1338769 4.68247801 29 0 C33.62 0 38.24 0 43 0 C41.77626907 7.77698161 40.28873319 15.3670493 38.375 23 C36.44452447 30.76919391 34.65558263 38.54326435 33.0390625 46.3828125 C32.52740355 48.82376492 32.01441049 51.26443431 31.50128174 53.70507812 C31.16964564 55.306041 30.84558479 56.90859358 30.52947998 58.51269531 C27.35462103 74.59898316 27.35462103 74.59898316 21 80 C15.44716487 83.32394843 9.2952181 83.29977229 3 83 C3 79.7 3 76.4 3 73 C12.75 71 12.75 71 15 71 C13.69720659 62.67929368 12.09791472 54.4659827 10.25 46.25 C9.8629187 44.51302856 9.8629187 44.51302856 9.46801758 42.7409668 C7.44221104 33.7420758 5.25076701 24.79016357 2.91699219 15.86621094 C1.55172973 10.57047862 0.54375433 5.44394044 0 0 Z " fill="#46451C" transform="translate(815,195)"/>
<path d="M0 0 C4.62 0 9.24 0 14 0 C14.32613281 1.7634375 14.65226563 3.526875 14.98828125 5.34375 C15.42967759 7.7291685 15.8710844 10.11458506 16.3125 12.5 C16.63250977 14.23056641 16.63250977 14.23056641 16.95898438 15.99609375 C18.62545612 25.00001574 20.30930644 34.00060206 22 43 C22.17128418 41.91058105 22.34256836 40.82116211 22.51904297 39.69873047 C23.15875072 35.63882213 23.80518761 31.58000867 24.45361328 27.52148438 C24.73278124 25.76819313 25.0101484 24.01461414 25.28564453 22.26074219 C25.68303511 19.73293639 26.08699167 17.20625243 26.4921875 14.6796875 C26.6131076 13.90132538 26.73402771 13.12296326 26.85861206 12.3210144 C26.97858551 11.58069977 27.09855896 10.84038513 27.22216797 10.07763672 C27.3243161 9.43365936 27.42646423 8.78968201 27.53170776 8.12619019 C28.14062404 5.3615238 29.10478163 2.68565511 30 0 C34.29 0 38.58 0 43 0 C41.37772241 11.2705601 39.04543653 22.20764272 36.19726562 33.23217773 C34.72137472 38.98529987 33.39483363 44.71145163 32.375 50.5625 C31.44045992 55.80357563 30.37576849 60.96791032 29.0625 66.125 C28.76472656 67.30320312 28.46695313 68.48140625 28.16015625 69.6953125 C26.62498069 74.06823681 24.79904497 77.69096728 20.9921875 80.4609375 C15.08773348 83.01009293 10.42275907 83.36184558 4 83 C4 79.7 4 76.4 4 73 C8.95 72.01 8.95 72.01 14 71 C14.95459473 66.22702636 14.91517285 64.51849799 13.8125 60.00390625 C13.52906738 58.81925781 13.24563477 57.63460937 12.95361328 56.4140625 C12.6389209 55.14304688 12.32422852 53.87203125 12 52.5625 C11.67972173 51.23594341 11.36056565 49.90911542 11.04248047 48.58203125 C10.37618446 45.80635842 9.70499574 43.03193695 9.03027344 40.25830078 C7.51207216 34.00258635 6.04680132 27.7345142 4.58447266 21.46554565 C4.13305622 19.53446315 3.67789 17.60425844 3.22265625 15.67407227 C2.94550781 14.49256592 2.66835938 13.31105957 2.3828125 12.09375 C2.13934082 11.05927734 1.89586914 10.02480469 1.64501953 8.95898438 C0.99834263 5.9923969 0.49915692 2.99494151 0 0 Z " fill="#9B8430" transform="translate(846,93)"/>
<path d="M0 0 C4.62 0 9.24 0 14 0 C14 27.06 14 54.12 14 82 C21.59 82 29.18 82 37 82 C37 85.63 37 89.26 37 93 C24.79 93 12.58 93 0 93 C0 62.31 0 31.62 0 0 Z " fill="#9B8430" transform="translate(681,67)"/>
<path d="M0 0 C4.33110752 4.89358901 5.65603356 9.57929304 6 16 C2.38026598 17.31626692 -0.09567131 18 -4 18 C-4.99 15.03 -5.98 12.06 -7 9 C-10.40320934 8.32326553 -10.40320934 8.32326553 -14 8 C-16.29953167 9.91722344 -16.29953167 9.91722344 -16.5625 13.1875 C-15.78392883 18.46448237 -13.06013385 20.74821859 -9 24 C-8.34 24.33 -7.68 24.66 -7 25 C-7 25.66 -7 26.32 -7 27 C-6.41476562 27.25007813 -5.82953125 27.50015625 -5.2265625 27.7578125 C-2.70467294 29.16476141 -1.24913938 30.68712804 0.625 32.875 C1.21539063 33.55304688 1.80578125 34.23109375 2.4140625 34.9296875 C7.25453622 41.24853251 6.938513 48.36132026 6 56 C4.08608648 60.0454627 1.65905531 62.17749035 -2.30859375 64.14453125 C-7.89432435 65.91996667 -14.7241473 66.13094915 -20.296875 64.20703125 C-22.125 63.1875 -22.125 63.1875 -25 61 C-25.5775 60.566875 -26.155 60.13375 -26.75 59.6875 C-29.83021387 55.52921128 -31.46990027 51.16890299 -31 46 C-29.75336669 45.49166409 -28.50250613 44.99368855 -27.25 44.5 C-26.55390625 44.2215625 -25.8578125 43.943125 -25.140625 43.65625 C-23 43 -23 43 -19 43 C-18.731875 44.258125 -18.46375 45.51625 -18.1875 46.8125 C-17.58319122 49.15109221 -17.049772 50.91617348 -15.8125 53 C-12.90663687 54.60323483 -10.23646499 54.23973815 -7 54 C-5.5761004 52.79141448 -5.5761004 52.79141448 -5.6875 49.25 C-5.71749461 45.90860024 -5.98545352 45.02278949 -7.875 42.0625 C-9.82597612 39.96116416 -9.82597612 39.96116416 -12 39 C-12 38.34 -12 37.68 -12 37 C-12.8971875 36.566875 -12.8971875 36.566875 -13.8125 36.125 C-16 35 -16 35 -19 33 C-19 32.34 -19 31.68 -19 31 C-19.556875 30.79375 -20.11375 30.5875 -20.6875 30.375 C-24.7748058 27.94471007 -27.50461882 24.48614354 -29 20 C-29.66447134 12.54920667 -29.62407344 7.03698477 -25 1 C-18.48797878 -5.1050199 -7.19753376 -4.51609962 0 0 Z " fill="#46451C" transform="translate(891,197)"/>
<path d="M0 0 C4.29 0 8.58 0 13 0 C13 6.27 13 12.54 13 19 C16.63 19 20.26 19 24 19 C24 21.97 24 24.94 24 28 C20.37 28 16.74 28 13 28 C13.11803187 34.37220263 13.24226441 40.74424224 13.37231445 47.11621094 C13.41569919 49.28512256 13.45737161 51.45406913 13.49731445 53.62304688 C13.55493139 56.73578435 13.61865038 59.84834535 13.68359375 62.9609375 C13.70030624 63.934935 13.71701874 64.9089325 13.73423767 65.91244507 C13.75418289 66.81322784 13.77412811 67.71401062 13.79467773 68.64208984 C13.81799416 69.83455826 13.81799416 69.83455826 13.84178162 71.05111694 C13.88441725 73.07997774 13.88441725 73.07997774 15 75 C17.12576782 75.46651207 17.12576782 75.46651207 19.5625 75.625 C21.7590625 75.810625 21.7590625 75.810625 24 76 C24 79.3 24 82.6 24 86 C21.45651575 86.13593443 18.92038504 86.23448907 16.375 86.3125 C15.66214844 86.35439453 14.94929687 86.39628906 14.21484375 86.43945312 C10.21766984 86.53113143 7.76331877 86.23100947 4.6015625 83.66796875 C1.04571154 80.02135283 -0.25232091 78.08570018 -0.22705078 73.06958008 C-0.22682419 71.56836357 -0.22682419 71.56836357 -0.22659302 70.03681946 C-0.21627045 68.95861435 -0.20594788 67.88040924 -0.1953125 66.76953125 C-0.1924826 65.66397385 -0.18965271 64.55841644 -0.18673706 63.4193573 C-0.17553002 59.88362872 -0.15042427 56.3481522 -0.125 52.8125 C-0.11497089 50.41732136 -0.10584492 48.02213876 -0.09765625 45.62695312 C-0.07558897 39.75121589 -0.04210618 33.87562595 0 28 C-2.31 28 -4.62 28 -7 28 C-7 25.03 -7 22.06 -7 19 C-4.69 19 -2.38 19 0 19 C0 12.73 0 6.46 0 0 Z " fill="#46451C" transform="translate(743,176)"/>
<path d="M0 0 C4.62 0 9.24 0 14 0 C14 22.11 14 44.22 14 67 C9.38 67 4.76 67 0 67 C0 44.89 0 22.78 0 0 Z " fill="#9B8430" transform="translate(725,93)"/>
<path d="M0 0 C8.50648652 0.28354955 16.06246124 2.97434903 22.734375 8.4140625 C24 9.8125 24 9.8125 26 13 C26.38800781 13.59941406 26.77601563 14.19882813 27.17578125 14.81640625 C31.18712886 22.08094298 30.35481198 29.9674511 30 38 C22.14403767 36.9993356 15.8851685 34.91304587 9 31 C9 30.34 9 29.68 9 29 C8.34 29 7.68 29 7 29 C7 28.34 7 27.68 7 27 C6.01 26.67 5.02 26.34 4 26 C-1.2767562 18.21722581 -0.39896488 8.93238046 0 0 Z " fill="#45441B" transform="translate(552,76)"/>
<path d="M0 0 C1.09765625 1.890625 1.09765625 1.890625 2.0625 4.25 C2.40410156 5.06082031 2.74570312 5.87164062 3.09765625 6.70703125 C3.77702422 8.43339054 4.40212837 10.18125208 5 11.9375 C6.27896097 14.57535699 7.3760751 14.78042927 10 16 C12.26728687 17.28133642 14.52556982 18.57725519 16.78125 19.87890625 C18.93170447 21.08543191 18.93170447 21.08543191 21.21875 21.46484375 C22.10046875 21.72974609 22.10046875 21.72974609 23 22 C23.495 23.485 23.495 23.485 24 25 C13.64022903 25.62158626 5.67645304 25.34116243 -2.71875 18.625 C-4.125 17.3125 -4.125 17.3125 -6 15 C-6 14.34 -6 13.68 -6 13 C-6.66 13 -7.32 13 -8 13 C-8.67408308 11.73308493 -9.33900497 10.46129251 -10 9.1875 C-10.37125 8.47980469 -10.7425 7.77210937 -11.125 7.04296875 C-12 5 -12 5 -12 2 C-10.56656 1.46809459 -9.12804633 0.94984742 -7.6875 0.4375 C-6.48673828 0.00244141 -6.48673828 0.00244141 -5.26171875 -0.44140625 C-3 -1 -3 -1 0 0 Z " fill="#46451C" transform="translate(550,92)"/>
<path d="M0 0 C4.62 0 9.24 0 14 0 C14 4.29 14 8.58 14 13 C9.38 13 4.76 13 0 13 C0 8.71 0 4.42 0 0 Z " fill="#9B8430" transform="translate(725,71)"/>
</svg>
