<?xml version="1.0" encoding="UTF-8"?>
<svg version="1.1" xmlns="http://www.w3.org/2000/svg" width="4167" height="4167">
<path d="M0 0 C-2.68826155 2.6908218 -5.37827261 5.37948249 -8.0859375 8.05078125 C-13.9527089 13.85917681 -19.67011369 19.68977519 -25 26 C-26.30130859 27.485 -26.30130859 27.485 -27.62890625 29 C-84.6004121 94.15635844 -122.56915255 176.01012841 -158 362 C-158.14356934 363.74192627 -158.14356934 363.74192627 -158.29003906 365.51904297 C-159.39277085 380.98297881 -159.2459087 396.50454908 -159.25 412 C-159.25044186 412.76669888 -159.25088371 413.53339775 -159.25133896 414.32332993 C-159.25888453 439.3279917 -158.69938478 464.12128835 -156 489 C-155.91514343 489.8011322 -155.83028687 490.6022644 -155.74285889 491.42767334 C-148.37314386 560.84535828 -132.53981379 628.66607988 -111 695 C-110.75376892 695.75931824 -110.50753784 696.51863647 -110.25384521 697.30096436 C-98.69226158 732.85777342 -85.17438101 767.83207943 -70 802 C-69.50113281 803.13228027 -69.00226562 804.26456055 -68.48828125 805.43115234 C-56.67227297 832.2366749 -44.222135 858.73440223 -31.125 884.9375 C-30.7404364 885.70762421 -30.3558728 886.47774841 -29.95965576 887.27120972 C-26.28449662 894.62044376 -22.5741677 901.947004 -18.71629333 909.20222473 C-11.03799382 923.64496307 -3.77512199 938.29837026 3.53100586 952.93164062 C5.52941696 956.93414215 7.53143738 960.93482566 9.53442478 964.93503857 C17.78038988 981.40682295 25.96853243 997.89784276 33.84091187 1014.5524292 C35.34024569 1017.71847462 36.8540172 1020.87750235 38.36819458 1024.03646851 C47.95637365 1044.05057089 57.22299233 1064.18422091 66.13819885 1084.50683594 C68.24824008 1089.31146066 70.39298605 1094.09910955 72.55859375 1098.87890625 C89.69833832 1136.8335388 105.12290151 1175.73378311 119 1215 C119.31457153 1215.88892944 119.62914307 1216.77785889 119.95324707 1217.69372559 C150.15225037 1303.2033565 173.28859081 1391.46760581 184 1506 C184.08991211 1507.24998779 184.17982422 1508.49997559 184.27246094 1509.7878418 C189.91324739 1593.6080413 183.0515409 1679.58150898 122.27148438 1861.28076172 C121.08579916 1863.81650709 119.92211688 1866.36099485 118.765625 1868.91015625 C112.91556852 1881.69775412 106.08234546 1893.8591372 99 1906 C98.49033691 1906.87865723 97.98067383 1907.75731445 97.45556641 1908.66259766 C83.8923437 1931.97507721 68.4375916 1954.40319997 51 1975 C50.13096145 1976.04251137 49.26250152 1977.08550528 48.39453125 1978.12890625 C42.57400858 1985.09882941 36.55828253 1991.85431906 30.37939453 1998.50732422 C28.98231325 2000.01913925 27.59700462 2001.54094604 26.21484375 2003.06640625 C18.58299962 2011.48165603 10.82053147 2019.71951613 2.171875 2027.10546875 C0.03018735 2028.97366751 -2.04638349 2030.90222565 -4.12011719 2032.84521484 C-10.48529516 2038.78701141 -17.15490752 2044.19657575 -24.05908203 2049.49609375 C-26.10613944 2051.08224138 -28.13035581 2052.69453598 -30.15234375 2054.3125 C-47.42736428 2068.07090296 -65.86854537 2079.99271078 -85 2091 C-85.84578613 2091.48678223 -86.69157227 2091.97356445 -87.56298828 2092.47509766 C-138.68513002 2121.64518605 -194.81673588 2139.77526197 -253 2148 C-254.12631836 2148.16516113 -255.25263672 2148.33032227 -256.41308594 2148.50048828 C-293.14482448 2153.6617192 -333.37574853 2154.00247267 -370 2148 C-371.25280762 2147.80132324 -372.50561523 2147.60264648 -373.79638672 2147.39794922 C-445.16962919 2135.90935142 -509.8709724 2104.68509574 -564 2057 C-564.928125 2056.1853125 -565.85625 2055.370625 -566.8125 2054.53125 C-573.69968503 2048.34843617 -580.25738025 2041.84387137 -586.8125 2035.3125 C-587.708479 2034.42119385 -588.60445801 2033.5298877 -589.52758789 2032.61157227 C-594.5586834 2027.56827333 -599.38942142 2022.42961614 -604 2017 C-604.91267821 2015.94393936 -605.82543382 2014.88794561 -606.73828125 2013.83203125 C-613.07146004 2006.4032798 -619.16799158 1998.82999184 -625 1991 C-625.48162598 1990.35498535 -625.96325195 1989.7099707 -626.45947266 1989.04541016 C-647.50883827 1960.72187859 -665.18281694 1930.50948099 -681 1899 C-681.48033691 1898.04867187 -681.96067383 1897.09734375 -682.45556641 1896.1171875 C-718.63819354 1824.03430919 -740.29770623 1743.36216853 -752.75 1635 C-752.80925659 1634.2968869 -752.86851318 1633.5937738 -752.92956543 1632.86935425 C-754.5808119 1612.89439901 -755.20943247 1592.91437284 -755.1875 1572.875 C-755.18689575 1571.83885559 -755.1862915 1570.80271118 -755.18566895 1569.73516846 C-755.0671564 1494.11115963 -743.6270329 1418.96045193 -653.59619141 1195.73046875 C-651.88739647 1192.80737873 -650.19865964 1189.87325156 -648.51171875 1186.9375 C-641.81472017 1175.31904161 -634.90769875 1163.86821637 -627.65722656 1152.58740234 C-625.79918461 1149.68647002 -623.95781819 1146.77529029 -622.1171875 1143.86328125 C-614.81817155 1132.34347315 -607.34932278 1121.02016525 -599.38818359 1109.94873047 C-597.04761437 1106.66304219 -594.77576397 1103.33074313 -592.5 1100 C-582.86153699 1085.93585304 -572.93287287 1072.10588687 -562.78222656 1058.40722656 C-560.43147531 1055.23210227 -558.08817362 1052.05152566 -555.74560547 1048.87036133 C-554.58109971 1047.28907652 -553.41605981 1045.70818493 -552.25048828 1044.12768555 C-549.32619517 1040.16214832 -546.40766105 1036.19259546 -543.5 1032.21484375 C-537.16373642 1023.5588184 -530.72431465 1015.00355672 -524.109375 1006.55834961 C-520.34585308 1001.74899473 -516.64782804 996.89759191 -513 992 C-507.04539784 984.01325596 -500.9337842 976.15361367 -494.79980469 968.30419922 C-491.77823347 964.4358339 -488.76394444 960.56180874 -485.75 956.6875 C-485.16452393 955.9351709 -484.57904785 955.1828418 -483.97583008 954.40771484 C-480.57346083 950.03289709 -477.18543529 945.64753883 -473.8125 941.25 C-470.03739726 936.33315887 -466.2219685 931.45035585 -462.38598633 926.58105469 C-458.57124642 921.73571705 -454.78292002 916.87020793 -451 912 C-444.59271498 903.75312847 -438.14755317 895.53681845 -431.68652344 887.33203125 C-424.36105888 878.02744415 -417.0808779 868.68831767 -409.81591797 859.33642578 C-407.99442692 856.99282947 -406.17131223 854.65050573 -404.34765625 852.30859375 C-397.53642618 843.5608916 -390.74197846 834.80125443 -384 826 C-383.52804199 825.38398926 -383.05608398 824.76797852 -382.56982422 824.13330078 C-379.33123093 819.90481759 -376.09637345 815.67349311 -372.86376953 811.44042969 C-371.53953459 809.70646945 -370.21495432 807.97277291 -368.89013672 806.23925781 C-366.69660492 803.36859018 -364.50440335 800.49691116 -362.3125 797.625 C-361.61688965 796.71492188 -360.9212793 795.80484375 -360.20458984 794.8671875 C-359.55570801 794.01640625 -358.90682617 793.165625 -358.23828125 792.2890625 C-357.66118408 791.53318848 -357.08408691 790.77731445 -356.48950195 789.99853516 C-355.27519919 788.36924776 -354.12716235 786.69074352 -353 785 C-351.68 785.33 -350.36 785.66 -349 786 C-350.76812651 791.14744521 -353.6306623 795.62070064 -356.4375 800.25 C-356.97391113 801.13896973 -357.51032227 802.02793945 -358.06298828 802.94384766 C-362.28028243 809.89574501 -366.64974996 816.73718369 -371.09765625 823.54296875 C-374.37782022 828.56455218 -377.59624424 833.62482588 -380.8125 838.6875 C-381.40289063 839.6163501 -381.99328125 840.5452002 -382.6015625 841.50219727 C-383.8047381 843.39553501 -385.00769941 845.28900893 -386.21044922 847.18261719 C-413.07898153 889.48314419 -413.07898153 889.48314419 -426.06665039 909.40283203 C-430.41419325 916.07872414 -434.71129833 922.78618809 -439 929.5 C-444.31822658 937.82549701 -449.67058964 946.12696415 -455.06640625 954.40234375 C-460.10804924 962.1444245 -465.08095788 969.92993323 -470.05419922 977.71606445 C-474.21535421 984.22580692 -478.40431644 990.71621711 -482.625 997.1875 C-487.65456244 1004.90227836 -492.61860685 1012.65676023 -497.5546875 1020.43164062 C-502.0603834 1027.52836033 -506.58926733 1034.60994683 -511.125 1041.6875 C-522.63432367 1059.66507728 -533.9608089 1077.72911658 -545 1096 C-545.515625 1096.85207031 -546.03125 1097.70414063 -546.5625 1098.58203125 C-565.4885114 1129.87895114 -583.50620878 1161.61890008 -600.09112549 1194.21801758 C-600.98249773 1195.96568423 -601.87962075 1197.71041396 -602.77685547 1199.45507812 C-641.11355014 1274.01112702 -667.37524593 1354.4736268 -682 1478 C-682.08757568 1479.31057373 -682.17515137 1480.62114746 -682.26538086 1481.97143555 C-683.11780469 1495.70608611 -683.20043295 1509.42995897 -683.1875 1523.1875 C-683.18689575 1524.37897644 -683.1862915 1525.57045288 -683.18566895 1526.79803467 C-683.15982751 1545.61721983 -682.76670255 1564.25518996 -681 1583 C-680.93683594 1583.6831427 -680.87367188 1584.3662854 -680.80859375 1585.07012939 C-674.00234025 1658.36038428 -656.67459414 1730.52646836 -627 1798 C-626.54415527 1799.03721191 -626.08831055 1800.07442383 -625.61865234 1801.14306641 C-608.98159467 1838.7096504 -589.69989419 1875.7202447 -564.37304688 1908.22998047 C-563.05051504 1909.93488014 -561.74863217 1911.653416 -560.453125 1913.37890625 C-545.13360442 1933.71291545 -527.63006987 1953.71406469 -508 1970 C-507.50322754 1970.42651855 -507.00645508 1970.85303711 -506.49462891 1971.29248047 C-489.28241479 1986.06352729 -470.18212262 1998.66200449 -450 2009 C-449.33581055 2009.34434082 -448.67162109 2009.68868164 -447.98730469 2010.04345703 C-409.18747 2029.93715593 -363.49882108 2038.91840954 -320 2037 C-318.58775146 2036.9383667 -318.58775146 2036.9383667 -317.14697266 2036.87548828 C-274.38841684 2034.7859601 -232.38158181 2024.85947201 -193.40722656 2007.09423828 C-191.0899395 2006.04088325 -188.7613499 2005.01713867 -186.4296875 2003.99609375 C-165.78895055 1994.77585482 -146.01340044 1982.62748735 -128 1969 C-127.39446289 1968.54318848 -126.78892578 1968.08637695 -126.16503906 1967.61572266 C-114.16038512 1958.49748659 -102.45571039 1948.87674571 -92 1938 C-89.42062003 1935.40350971 -86.82383236 1932.82826115 -84.203125 1930.2734375 C-77.64455679 1923.85938947 -71.66646838 1917.22963207 -66 1910 C-65.14168904 1908.93143612 -64.28226841 1907.86376283 -63.421875 1906.796875 C-4.23334765 1833.0168428 25.52735466 1740.7128132 33.06246948 1522.59051514 C24.26632285 1444.77265072 3.1546219 1368.93213441 -25 1296 C-25.25612061 1295.33560913 -25.51224121 1294.67121826 -25.77612305 1293.98669434 C-45.9423413 1241.76978061 -69.86186753 1191.22984834 -94.84951401 1141.17892838 C-95.73560711 1139.40383304 -96.62118005 1137.62847808 -97.50674438 1135.8531189 C-104.51304363 1121.81610131 -111.61250781 1107.84047522 -119 1094 C-119.49249237 1093.07525879 -119.49249237 1093.07525879 -119.99493408 1092.13183594 C-122.05130004 1088.27117554 -124.1176822 1084.41596155 -126.1875 1080.5625 C-126.82339364 1079.37747901 -127.45921512 1078.19241928 -128.0949707 1077.00732422 C-129.07878441 1075.17343333 -130.06264739 1073.33956912 -131.04679871 1071.50585938 C-133.32675462 1067.25728272 -135.60203972 1063.00622905 -137.875 1058.75390625 C-144.54361256 1046.28083415 -151.25195711 1033.83095653 -158.0390625 1021.421875 C-161.20929549 1015.62354639 -164.35547348 1009.81229923 -167.5 1004 C-171.65271871 996.32566735 -175.81784099 988.65832876 -180 981 C-190.47746013 961.80912433 -200.86671179 942.57060571 -211.21728516 923.31103516 C-212.96634199 920.06251299 -214.7227189 916.81804378 -216.48046875 913.57421875 C-239.37509239 871.22231854 -261.59725168 828.23107167 -281.46972656 784.37255859 C-282.79895654 781.44307822 -284.13828331 778.51846893 -285.48233032 775.59576416 C-305.23847419 732.60561534 -322.71857804 688.77344329 -338 644 C-338.34774475 642.98347351 -338.34774475 642.98347351 -338.70251465 641.94641113 C-361.84373318 574.17308661 -378.19583705 502.5963224 -383 431 C-383.08612549 429.845 -383.17225098 428.69 -383.26098633 427.5 C-384.21993732 413.59068575 -384.18743127 399.66205288 -384.18530273 385.7265625 C-384.18522183 382.92311095 -384.19212294 380.11982407 -384.20581055 377.31640625 C-384.31560955 354.4260397 -384.02200313 331.4591425 -379.875 308.875 C-379.66109619 307.68729004 -379.44719238 306.49958008 -379.22680664 305.27587891 C-371.72814658 265.13121992 -358.88131178 226.17856808 -339.99755859 189.92138672 C-338.96058625 187.9240856 -337.94298687 185.91758716 -336.92578125 183.91015625 C-324.51566324 159.67296481 -308.76372339 136.50403123 -290.265625 116.4765625 C-288.38853839 114.42471266 -286.56625363 112.34339046 -284.75 110.23828125 C-275.11646854 99.20425777 -264.5663462 88.97977932 -253 80 C-251.87374152 79.07602903 -250.75021428 78.14872248 -249.62890625 77.21875 C-240.19713562 69.44051915 -230.3139497 62.55637267 -220 56 C-219.36626465 55.5968457 -218.7325293 55.19369141 -218.07958984 54.77832031 C-153.2395633 13.9202214 -75.82495047 -1.38134019 0 0 Z " fill="#9B8430" transform="translate(1501,1008)"/>
<path d="M0 0 C29.37 0 58.74 0 89 0 C89 219.78 89 439.56 89 666 C59.63 666 30.26 666 0 666 C-0.33 656.76 -0.66 647.52 -1 638 C-3.64 640.64 -6.28 643.28 -9 646 C-28.53121647 662.91542855 -50.56989898 672.44798888 -76.625 672.3125 C-77.75655518 672.30758545 -78.88811035 672.3026709 -80.05395508 672.29760742 C-106.84450961 671.92707347 -130.62489604 663.54849994 -151 646 C-151.68707031 645.41605469 -152.37414063 644.83210938 -153.08203125 644.23046875 C-184.8154406 614.87520718 -191.19210145 562.38937068 -194 522 C-194.12442978 520.21313278 -194.12442978 520.21313278 -194.25137329 518.39016724 C-195.1843039 503.68952955 -195.16454308 488.98524553 -195.16725707 474.26111054 C-195.16797764 472.05482063 -195.17013058 469.84853658 -195.17275429 467.64224815 C-195.18195819 459.88299553 -195.18609597 452.12375986 -195.18530273 444.36450195 C-195.18470521 437.23413895 -195.19520577 430.10385239 -195.2110464 422.97350866 C-195.2243148 416.77055008 -195.22947864 410.56761585 -195.22884732 404.36464328 C-195.22859765 400.69628771 -195.23114195 397.02800008 -195.24202538 393.35965919 C-195.31274957 367.74287292 -194.59109956 342.04751578 -191.1875 316.625 C-190.93202393 314.66578613 -190.93202393 314.66578613 -190.67138672 312.66699219 C-185.96806507 277.400095 -178.17933745 243.00025007 -155 215 C-154.34515625 214.18660156 -153.6903125 213.37320312 -153.015625 212.53515625 C-138.1945026 194.98240363 -116.39994771 186.50489659 -94 184 C-61.45337546 181.93191176 -36.63639335 188.70970226 -11 209 C-7.7 211.97 -4.4 214.94 -1 218 C-0.67 146.06 -0.34 74.12 0 0 Z M-87.6875 267.6875 C-105.15408607 288.86869939 -106.14427426 324.80865063 -106.16113281 350.95727539 C-106.16577129 352.64755357 -106.1707973 354.33783071 -106.17617798 356.02810669 C-106.18922092 360.59777392 -106.19573317 365.16742651 -106.20018864 369.73710942 C-106.20313773 372.61005992 -106.20724622 375.48300658 -106.21169281 378.35595512 C-106.22535791 387.39552351 -106.23502455 396.43508294 -106.2388947 405.47466093 C-106.24334732 415.81143107 -106.26076796 426.14806712 -106.2898953 436.48479658 C-106.31176262 444.53304421 -106.3216124 452.58125488 -106.32293582 460.6295318 C-106.3239679 465.40697978 -106.32952165 470.18430168 -106.34775543 474.96171761 C-108.62996447 536.99452114 -108.62996447 536.99452114 -83.90625 591.24609375 C-73.8193572 600.92453843 -62.37869377 602.49455285 -48.90234375 602.27734375 C-36.14092819 601.771717 -23.42653161 597.54724033 -12 592 C-11.02702386 591.58108852 -10.05404773 591.16217704 -9.05158746 590.73057127 C-2.75148218 587.78643584 -2.75148218 587.78643584 1.11772799 582.32129765 C1.54763871 578.96443189 1.59068458 575.78233589 1.51034546 572.39855957 C1.53630859 570.49201937 1.53630859 570.49201937 1.56279624 568.54696321 C1.60893295 565.02904364 1.58044881 561.51512023 1.53937793 557.99728417 C1.50807413 554.20015146 1.54597397 550.40361559 1.57498169 546.60655212 C1.62061761 539.17238163 1.60169276 531.73971564 1.55997996 524.30557525 C1.52740131 518.26354754 1.51901511 512.22193026 1.52791214 506.17982483 C1.52917349 505.31965697 1.53043484 504.45948912 1.53173441 503.57325557 C1.53442655 501.82579932 1.53718569 500.07834318 1.54001112 498.33088714 C1.56388118 481.94760132 1.51576314 465.56514003 1.44197495 449.18204194 C1.38018867 435.12676585 1.37544661 421.07243894 1.41357422 407.01708984 C1.45780719 390.69228348 1.47007954 374.36800913 1.42892897 358.04317617 C1.42460313 356.30217591 1.42030494 354.56117557 1.4160347 352.82017517 C1.41390197 351.96358678 1.41176924 351.10699838 1.40957188 350.22445276 C1.39663691 344.1902321 1.40615992 338.15628537 1.42408371 332.12208557 C1.44516456 324.76732173 1.43012726 317.41367057 1.36917214 310.05911219 C1.33892881 306.30683434 1.32456057 302.55631186 1.35355377 298.80398369 C1.38442787 294.73486308 1.33775123 290.67031277 1.28329468 286.60144043 C1.30423766 285.41652024 1.32518063 284.23160005 1.34675825 283.01077318 C1.21225934 276.76788664 1.21225934 276.76788664 -2.1690681 271.7501688 C-4.71007415 269.93891524 -7.23025022 268.43177134 -10 267 C-10.73643474 266.58265579 -11.47286948 266.16531157 -12.23162043 265.73532057 C-14.08431269 264.69032135 -15.96167795 263.74136104 -17.875 262.8125 C-18.55481934 262.47790771 -19.23463867 262.14331543 -19.93505859 261.79858398 C-42.25919322 251.05041168 -69.41418611 248.51228436 -87.6875 267.6875 Z " fill="#9B8430" transform="translate(2912,1444)"/>
<path d="M0 0 C30.83564368 29.50117997 43.11470491 72.3797487 49.58984375 113.29296875 C49.7614502 114.36361572 49.93305664 115.4342627 50.10986328 116.53735352 C51.06983188 122.92329685 51.49534556 129.08724427 51.27734375 135.54296875 C32.67493787 140.75355894 14.05782862 145.90735633 -4.59695435 150.92758179 C-6.43155251 151.42138759 -8.26592363 151.91603768 -10.10006714 152.41152954 C-12.67407919 153.10643601 -15.24898477 153.79791884 -17.82421875 154.48828125 C-18.59654343 154.69717484 -19.3688681 154.90606842 -20.16459656 155.12129211 C-25.49306112 156.54296875 -25.49306112 156.54296875 -27.72265625 156.54296875 C-28.92500544 154.13827037 -29.04073289 152.25413531 -29.30078125 149.57421875 C-32.92769091 114.28202121 -37.70127736 73.904317 -66.72265625 49.54296875 C-86.20137884 35.43866743 -112.80829509 33.7091594 -135.984375 37.19140625 C-151.77463844 40.2508572 -165.8718932 48.19350288 -175.625 61.05078125 C-177.16764601 63.49232277 -178.47270753 65.94022743 -179.72265625 68.54296875 C-180.17125 69.43242187 -180.61984375 70.321875 -181.08203125 71.23828125 C-192.01061832 94.83117216 -189.87014893 125.55356271 -181.47314453 149.56933594 C-173.08250504 171.63502547 -153.82061134 190.70401737 -135.5703125 205.19921875 C-132.33382129 207.86299752 -129.2789219 210.67662529 -126.22265625 213.54296875 C-122.32715588 217.19210659 -118.38928288 220.69997762 -114.22265625 224.04296875 C-109.46157147 227.86290886 -105.009926 231.93235694 -100.55859375 236.1015625 C-97.21148756 239.21865429 -93.79251484 242.17877988 -90.22265625 245.04296875 C-85.46076783 248.86355365 -81.00830031 252.93364678 -76.55639648 257.10375977 C-73.23110825 260.20076959 -69.83545686 263.13918559 -66.28515625 265.98046875 C-61.26182834 270.00936784 -56.59361089 274.33905147 -51.90991211 278.75024414 C-48.49089687 281.95274196 -45.01606099 284.99866768 -41.34765625 287.91796875 C-25.33803648 300.78660895 -9.47570375 315.75175133 3.21875 331.92578125 C5.43432599 334.74254768 7.75679379 337.44791998 10.08984375 340.16796875 C20.30153585 352.42199927 29.19614431 365.80325657 37.27734375 379.54296875 C37.66519043 380.20200195 38.05303711 380.86103516 38.45263672 381.54003906 C64.15927202 425.92575151 69.50734435 484.52515935 56.58984375 533.85546875 C45.87332195 572.07795565 21.13509865 603.15652899 -13.32421875 622.6015625 C-55.65517661 645.56279916 -110.50144956 647.37912523 -156.1875 634.32470703 C-179.39299402 627.16908378 -199.12089264 615.20670734 -216.72265625 598.54296875 C-217.60695313 597.723125 -218.49125 596.90328125 -219.40234375 596.05859375 C-231.37690801 584.59286367 -240.1212286 571.19551052 -247.72265625 556.54296875 C-248.05861816 555.90762207 -248.39458008 555.27227539 -248.74072266 554.61767578 C-265.4644017 522.64617625 -275.08486297 482.67840586 -273.72265625 446.54296875 C-257.88887916 441.9596805 -242.00351153 437.57265037 -226.09570312 433.25439453 C-222.71579601 432.3366817 -219.33723776 431.41409539 -215.95892906 430.49051857 C-212.70138231 429.6010442 -209.44239867 428.71688478 -206.18359375 427.83203125 C-204.97440277 427.50087311 -203.76521179 427.16971497 -202.51937866 426.82852173 C-201.40616241 426.52755585 -200.29294617 426.22658997 -199.14599609 425.91650391 C-198.16786957 425.65036285 -197.18974304 425.3842218 -196.18197632 425.11001587 C-193.72265625 424.54296875 -193.72265625 424.54296875 -190.72265625 424.54296875 C-190.66843506 425.20264648 -190.61421387 425.86232422 -190.55834961 426.54199219 C-189.26276573 441.61553808 -187.22827836 456.3865763 -184.34765625 471.23046875 C-184.20689667 471.96930298 -184.06613708 472.70813721 -183.92111206 473.46936035 C-181.2278935 487.50366822 -177.98056045 501.70038009 -171.97265625 514.73046875 C-171.46786743 515.84143921 -171.46786743 515.84143921 -170.95288086 516.97485352 C-161.26187966 537.69546581 -147.52216455 554.21857417 -125.72265625 562.54296875 C-104.34769083 569.19989229 -78.86777865 568.97069783 -58.72265625 558.54296875 C-44.17844055 550.78473091 -35.18789771 538.88691338 -30.00683594 523.40380859 C-20.81009514 492.58554432 -24.28918217 455.60654567 -39.5625 427.25390625 C-42.75985384 421.60674483 -46.60056994 416.54407832 -50.72265625 411.54296875 C-51.16013184 411.01074707 -51.59760742 410.47852539 -52.04833984 409.93017578 C-55.21908672 406.08763185 -58.43682299 402.28771444 -61.72265625 398.54296875 C-62.68353149 397.44746704 -62.68353149 397.44746704 -63.66381836 396.32983398 C-69.17019168 390.12907424 -74.91473695 384.1954922 -80.78881836 378.34643555 C-82.2907255 376.8499195 -83.78716687 375.34808575 -85.28320312 373.84570312 C-90.59383501 368.53140613 -96.00966996 363.4216513 -101.72265625 358.54296875 C-103.33033998 357.08851358 -104.9350534 355.6307598 -106.53515625 354.16796875 C-109.93349177 351.09550102 -113.39856148 348.15854253 -116.97265625 345.29296875 C-122.73706853 340.6323801 -128.11117578 335.60517594 -133.515625 330.5390625 C-138.18658945 326.16180161 -143.02013166 321.99153985 -147.89453125 317.84375 C-154.73784104 312.01278662 -161.46248842 306.08888541 -168.06640625 299.98828125 C-172.58564472 295.82792348 -177.22444234 291.8161134 -181.90234375 287.8359375 C-188.73751804 282.01387441 -195.45412244 276.09900875 -202.046875 270.00390625 C-206.27262397 266.11745099 -210.60604337 262.35720836 -214.96484375 258.62109375 C-219.22719568 254.9184446 -223.16493873 251.15695766 -226.796875 246.83203125 C-228.22621288 245.13306168 -229.6933753 243.46576383 -231.1796875 241.81640625 C-265.91504141 202.91306286 -274.83353237 152.36466032 -272.59814453 101.72216797 C-270.37450646 62.68417684 -256.59059816 25.67180987 -227.36328125 -1.0234375 C-203.41938016 -21.94584631 -173.12994434 -33.13473509 -141.72265625 -36.45703125 C-140.78808594 -36.56789063 -139.85351562 -36.67875 -138.890625 -36.79296875 C-90.21158461 -41.61525655 -37.24737758 -33.61348709 0 0 Z " fill="#46451C" transform="translate(2154.72265625,2213.45703125)"/>
<path d="M0 0 C17.70960293 15.0246861 25.3407677 35.79106299 29.23828125 58.0390625 C29.35389404 58.68061279 29.46950684 59.32216309 29.58862305 59.9831543 C31.78160747 73.76548694 31.63735693 87.99628245 31.60853577 101.92019653 C31.60897331 103.52790464 31.60985156 105.13561268 31.61112493 106.74332035 C31.61333402 111.10366891 31.60939853 115.46399235 31.60434687 119.82433772 C31.59999031 124.54799183 31.60149246 129.27164474 31.60224915 133.99530029 C31.60277111 142.16031347 31.59965871 150.32531859 31.59401131 158.49032974 C31.58585167 170.29527092 31.58327653 182.10020825 31.58202332 193.90515195 C31.57983978 213.06225845 31.5731987 232.21936067 31.5637207 251.37646484 C31.55452847 269.97542296 31.54745651 288.57437991 31.54321289 307.17333984 C31.54281881 308.89571675 31.54281881 308.89571675 31.54241676 310.65288915 C31.54111163 316.41386922 31.53984795 322.17484931 31.53860486 327.9358294 C31.52825401 375.65774424 31.50982748 423.37965115 31.48828125 471.1015625 C2.11828125 471.1015625 -27.25171875 471.1015625 -57.51171875 471.1015625 C-57.53153809 460.06783203 -57.55135742 449.03410156 -57.57177734 437.66601562 C-57.63663611 402.32989566 -57.71117211 366.99380201 -57.79177036 331.65771458 C-57.80428867 326.16552733 -57.81672153 320.6733399 -57.82910156 315.18115234 C-57.83156756 314.08779369 -57.83403355 312.99443503 -57.83657427 311.8679443 C-57.87625758 294.18311197 -57.90902448 276.49827329 -57.93921857 258.8134225 C-57.97037359 240.65628694 -58.00900023 222.49917827 -58.05450881 204.34207296 C-58.08233792 193.14545024 -58.10439505 181.9488471 -58.11898126 170.75219917 C-58.12955373 163.06586761 -58.14740811 155.37957404 -58.17088579 147.69327116 C-58.18420295 143.26404555 -58.19440828 138.834873 -58.19593239 134.4056263 C-58.19740274 130.3399711 -58.20814298 126.27444336 -58.22585316 122.20882744 C-58.23065108 120.74826357 -58.23222364 119.28768421 -58.22999756 117.82711416 C-58.14862598 90.77633864 -58.14862598 90.77633864 -69.51171875 67.1015625 C-79.12877926 59.03564079 -91.60372141 59.12729555 -103.51171875 60.1015625 C-119.82038143 62.67843497 -134.46186556 72.4530904 -147.51171875 82.1015625 C-148.17517807 82.42976018 -148.83863739 82.75795786 -149.52220154 83.09610093 C-152.07158501 84.53148006 -153.68279942 85.80091292 -155.51171875 88.1015625 C-156.73723248 93.16223665 -156.58225761 98.19296998 -156.51171875 103.36325073 C-156.51933955 104.94824766 -156.53047004 106.53323094 -156.54480648 108.11818135 C-156.57403138 112.47192339 -156.55345304 116.82422788 -156.52478671 121.1779213 C-156.50257962 125.87323103 -156.52649177 130.56833128 -156.54481506 135.2636261 C-156.57024089 143.39788957 -156.56641842 151.53171824 -156.54275513 159.66598129 C-156.50858444 171.42668205 -156.51848557 183.18702046 -156.53915846 194.94773759 C-156.57150069 214.02836802 -156.56817883 233.1088191 -156.54248047 252.18945312 C-156.51759255 270.72496986 -156.509469 289.26036882 -156.52392578 307.79589844 C-156.52481099 308.9383414 -156.5256962 310.08078437 -156.52660823 311.25784682 C-156.53115257 316.98912255 -156.53602686 322.72039795 -156.54106522 328.45167327 C-156.58243945 376.00174477 -156.55939531 423.55148053 -156.51171875 471.1015625 C-185.55171875 471.1015625 -214.59171875 471.1015625 -244.51171875 471.1015625 C-244.51171875 314.0215625 -244.51171875 156.9415625 -244.51171875 -4.8984375 C-215.47171875 -4.8984375 -186.43171875 -4.8984375 -156.51171875 -4.8984375 C-156.18171875 9.9515625 -155.85171875 24.8015625 -155.51171875 40.1015625 C-152.21171875 37.1315625 -148.91171875 34.1615625 -145.51171875 31.1015625 C-142.5776049 28.77031331 -139.6560564 26.50023815 -136.63671875 24.2890625 C-135.42786011 23.40238892 -135.42786011 23.40238892 -134.19458008 22.49780273 C-112.66422424 6.96229561 -89.83287854 -5.17085055 -63.51171875 -9.8984375 C-62.49980469 -10.08277344 -61.48789063 -10.26710938 -60.4453125 -10.45703125 C-40.13300986 -12.7363661 -17.01473396 -12.86028103 0 0 Z " fill="#9B8430" transform="translate(2607.51171875,1638.8984375)"/>
<path d="M0 0 C0.81882156 -0.00696899 1.63764313 -0.01393799 2.48127747 -0.02111816 C5.10736291 -0.03840537 7.73323504 -0.04483698 10.359375 -0.046875 C11.70296585 -0.04838562 11.70296585 -0.04838562 13.07369995 -0.04992676 C26.28704021 -0.03986385 39.159189 0.32837393 52.109375 3.203125 C52.78564941 3.34766113 53.46192383 3.49219727 54.15869141 3.64111328 C73.72362743 7.95122239 90.64656144 16.17702162 105.109375 30.203125 C105.72167969 30.74195312 106.33398438 31.28078125 106.96484375 31.8359375 C133.6555947 56.14467635 140.37885338 100.56576247 142.01641965 134.69926906 C142.36116163 143.98527832 142.27287914 153.28749533 142.28295898 162.57836914 C142.28927668 165.1116802 142.2960438 167.64499018 142.30322266 170.17829895 C142.31781451 175.6084022 142.32965022 181.03850031 142.33917046 186.46861458 C142.3531697 194.35309568 142.37437674 202.23754604 142.39759899 210.1220048 C142.43540632 222.96324657 142.47038536 235.80449393 142.50219727 248.64575195 C142.50409776 249.41211338 142.50599825 250.1784748 142.50795633 250.96805929 C142.53471139 261.81083693 142.55861312 272.65361898 142.58134133 283.49640571 C142.58293863 284.25821927 142.58453594 285.02003283 142.58618164 285.80493164 C142.58857184 286.94622429 142.58857184 286.94622429 142.59101032 288.11057336 C142.61796971 300.89056258 142.65244595 313.670519 142.69283539 326.45047277 C142.71515891 333.59804997 142.73386385 340.74559883 142.74328423 347.89320564 C142.7923427 383.79187553 143.57647751 419.0780063 147.734375 454.765625 C148.08029886 457.77647072 148.4240025 460.78753703 148.76400757 463.79905701 C148.97170157 465.63482272 149.18288981 467.47019807 149.39834595 469.30506897 C149.53881851 470.53573341 149.53881851 470.53573341 149.68212891 471.79125977 C149.80631699 472.85679832 149.80631699 472.85679832 149.93301392 473.94386292 C150.14732071 476.68922601 150.109375 479.44941007 150.109375 482.203125 C123.379375 482.203125 96.649375 482.203125 69.109375 482.203125 C67.8619352 478.4608056 66.84735495 475.38597007 66.1796875 471.61328125 C65.94934814 470.3303418 65.94934814 470.3303418 65.71435547 469.02148438 C65.55596191 468.11205078 65.39756836 467.20261719 65.234375 466.265625 C65.06437988 465.30849609 64.89438477 464.35136719 64.71923828 463.36523438 C64.36080598 461.3416882 64.00456979 459.31775196 63.65039062 457.29345703 C63.11587737 454.24026717 62.57417016 451.18842362 62.03125 448.13671875 C60.21041131 437.84721478 58.47415366 427.56466826 57.109375 417.203125 C56.41714844 418.89115234 56.41714844 418.89115234 55.7109375 420.61328125 C45.33595616 445.2903745 28.16132139 469.83737846 3.109375 481.203125 C-19.54416162 490.33157847 -47.15344212 491.90438649 -70.078125 482.953125 C-81.59411197 477.73398117 -90.56502401 471.33181048 -99.52050781 462.53369141 C-100.62468962 461.4613837 -101.7642809 460.42560498 -102.9140625 459.40234375 C-115.78937799 447.70575432 -124.27292501 429.38144749 -129.265625 413.015625 C-129.62382324 411.84157104 -129.62382324 411.84157104 -129.98925781 410.64379883 C-133.27540925 399.15772466 -134.25686438 387.73879695 -134.203125 375.828125 C-134.19821045 374.52319092 -134.1932959 373.21825684 -134.18823242 371.8737793 C-133.68783843 329.88430808 -120.09847591 292.52407998 -90.890625 262.203125 C-90.271875 261.52121094 -89.653125 260.83929687 -89.015625 260.13671875 C-54.72985489 223.4784958 -0.27342997 205.45836136 45.109375 187.203125 C46.03459961 186.80778564 46.95982422 186.41244629 47.91308594 186.00512695 C50.109375 185.203125 50.109375 185.203125 53.109375 185.203125 C53.01547846 177.91532698 52.90801365 170.62781101 52.79199219 163.34033203 C52.75418462 160.87162583 52.7192572 158.40287348 52.6875 155.93408203 C52.52694558 143.59647834 52.29126682 131.30215108 51.18359375 119.0078125 C51.06710983 117.7142836 51.06710983 117.7142836 50.94827271 116.3946228 C49.76881858 104.55435265 47.61090502 92.36775896 41.109375 82.203125 C40.70332031 81.56117188 40.29726562 80.91921875 39.87890625 80.2578125 C34.45821014 72.91364357 25.60020702 69.39435146 16.859375 67.765625 C3.58589597 66.22367594 -10.95389383 67.05930504 -22.203125 74.953125 C-32.50820095 83.52643507 -37.19445794 93.23914446 -40.140625 106.140625 C-40.30393311 106.85524902 -40.46724121 107.56987305 -40.63549805 108.30615234 C-43.03465448 119.68968306 -43.11127253 131.36641932 -43.453125 142.953125 C-43.49646058 144.34375889 -43.54007878 145.73438399 -43.58398438 147.125 C-43.68896249 150.48429977 -43.79112083 153.84365939 -43.890625 157.203125 C-60.23824364 157.33391668 -76.53662859 157.05778949 -92.87133789 156.40356445 C-96.37821113 156.26362637 -99.88533718 156.13231849 -103.39257812 156.00195312 C-105.6614776 155.91456131 -107.93035863 155.82668889 -110.19921875 155.73828125 C-111.22848984 155.69969498 -112.25776093 155.6611087 -113.31822205 155.62135315 C-119.53934613 155.36755567 -125.70323222 154.89949434 -131.890625 154.203125 C-130.61861205 109.63880921 -123.14400452 62.8111554 -89.56640625 30.5390625 C-65.28295633 9.33978797 -31.7709699 0.18309741 0 0 Z M47.8671875 241.625 C46.52914062 242.41233521 46.52914062 242.41233521 45.1640625 243.21557617 C44.19726562 243.78896729 43.23046875 244.3623584 42.234375 244.953125 C41.244375 245.54005127 40.254375 246.12697754 39.234375 246.73168945 C19.36189666 258.56591548 0.3638969 270.74387128 -16.890625 286.203125 C-17.57769531 286.80511719 -18.26476563 287.40710937 -18.97265625 288.02734375 C-33.35172213 301.39617081 -44.11428599 322.28552902 -45.01708984 341.95898438 C-45.57791904 364.54932726 -44.38486513 385.32973092 -28.890625 403.203125 C-22.13791116 409.71520761 -13.20186252 411.71614512 -4.06640625 412.26171875 C10.8312036 411.9868551 22.15810577 404.58738335 33.109375 395.203125 C33.87121094 394.57535156 34.63304688 393.94757812 35.41796875 393.30078125 C47.02566928 383.59832349 47.02566928 383.59832349 53.35547066 370.74125385 C53.35362707 369.75585715 53.35178349 368.77046045 53.34988403 367.75520325 C53.35263336 366.62358261 53.35538269 365.49196198 53.35821533 364.3260498 C53.35102478 363.08383667 53.34383423 361.84162354 53.33642578 360.56176758 C53.33671783 359.25435104 53.33700989 357.94693451 53.33731079 356.59989929 C53.3378853 353.01335965 53.32611521 349.42695341 53.31216288 345.8404448 C53.29967181 342.09283004 53.2984863 338.34521232 53.29611206 334.59757996 C53.28989251 327.50029048 53.27347528 320.40306251 53.25341308 313.30580014 C53.23106884 305.22608642 53.22006437 297.14636978 53.21002221 289.06663287 C53.18910946 272.44542755 53.15392427 255.82428412 53.109375 239.203125 C51.18724954 239.203125 49.47201784 240.68037027 47.8671875 241.625 Z " fill="#46451C" transform="translate(2643.890625,2365.796875)"/>
<path d="M0 0 C29.7 0 59.4 0 90 0 C94.6251089 23.12554452 94.6251089 23.12554452 96.60123158 34.14201069 C96.82014527 35.36036623 96.82014527 35.36036623 97.04348147 36.60333502 C97.19461598 37.44466904 97.3457505 38.28600305 97.50146484 39.15283203 C97.83112212 40.97974879 98.16094734 42.80663525 98.49092388 44.63349438 C99.38038154 49.56050332 100.26751619 54.48792789 101.15421414 59.41543412 C102.10316527 64.68648287 103.05433255 69.95713175 104.00523376 75.22782898 C105.62577992 84.21193726 107.24497584 93.19628799 108.8631897 102.18081665 C111.1685676 114.9805575 113.47604037 127.77991997 115.78407347 140.57918227 C119.32108361 160.19398734 122.85665476 179.8090514 126.39111328 199.42431641 C130.23509232 220.75724844 134.08117363 242.08980049 137.92908382 263.42202377 C138.59867266 267.13412967 139.26823809 270.84623979 139.93780518 274.55834961 C140.06580081 275.26796286 140.19379643 275.97757611 140.32567072 276.70869279 C140.57964571 278.11674146 140.83362046 279.52479017 141.08759499 280.93283892 C141.33498552 282.30438148 141.58237752 283.67592378 141.82977104 285.0474658 C145.55463807 305.69804775 149.27745021 326.34900023 153 347 C155.20636716 340.12933485 156.3053738 333.07424087 157.52075195 325.97460938 C157.76980535 324.53674109 158.01919807 323.09893154 158.26889992 321.66117573 C158.95207865 317.72182977 159.63051605 313.78167991 160.30819774 309.84138513 C161.03976064 305.59296093 161.77581721 301.34531521 162.5113678 297.09757996 C163.78323081 289.74925314 165.05240928 282.40046687 166.31976318 275.05136108 C168.31889757 263.45911723 170.32330343 251.86778827 172.32861328 240.27661133 C173.01315183 236.31947833 173.69765439 232.36233911 174.38214111 228.40519714 C174.63846762 226.92335756 174.63846762 226.92335756 174.89997244 225.41158181 C176.12734254 218.31565589 177.35395426 211.2195991 178.58026123 204.12348938 C183.5215108 175.53198105 188.47623367 146.94283214 193.44140625 118.35546875 C193.69519668 116.89423293 193.69519668 116.89423293 193.9541142 115.40347719 C195.94369723 103.94840026 197.93380751 92.49341496 199.92411131 81.03846323 C201.96384181 69.29880085 204.00266273 57.55898049 206.04152966 45.81916809 C208.69404637 30.54605876 211.34705711 15.27303535 214 0 C243.7 0 273.4 0 304 0 C303.31200419 5.50396644 302.49932592 10.72402735 301.26708984 16.09741211 C301.00397758 17.26617276 301.00397758 17.26617276 300.73554993 18.45854473 C300.14765638 21.06564927 299.55428539 23.67147559 298.9609375 26.27734375 C298.53235198 28.17272558 298.10410906 30.06818491 297.67617798 31.9637146 C296.49692386 37.18273914 295.3128895 42.40066934 294.12811279 47.61844254 C292.84560124 53.27062318 291.56757884 58.92381886 290.2890625 64.5769043 C288.05277623 74.46227785 285.81381021 84.34704141 283.57324219 94.23144531 C280.08816062 109.60645226 276.60961257 124.9829338 273.13219905 140.3596766 C271.7117179 146.64077441 270.29104796 152.92182952 268.87036133 159.20288086 C268.71209747 159.90259172 268.55383362 160.60230258 268.39077389 161.3232168 C264.61256573 178.0270808 260.83180168 194.73036613 257.05078125 211.43359375 C256.71586518 212.913145 256.38094938 214.39269632 256.04603386 215.8722477 C255.88008459 216.60535905 255.71413532 217.33847041 255.54315728 218.09379727 C254.70406342 221.80064976 253.8649706 225.50750249 253.02587891 229.21435547 C252.85960043 229.9489209 252.69332195 230.68348633 252.52200472 231.44031131 C248.03597493 251.25822311 243.55096299 271.07636526 239.06652832 290.89463806 C238.57393579 293.07156903 238.0813432 295.24849999 237.58875036 297.42543089 C237.26120414 298.87296888 236.93365929 300.32050717 236.60611582 301.76804578 C234.50185276 311.06753262 232.39711472 320.36691179 230.29189682 329.66618252 C228.70089093 336.69407248 227.11013438 343.72201887 225.51953125 350.75 C225.36347097 351.43953239 225.2074107 352.12906477 225.04662132 352.83949208 C220.63579237 372.32873437 216.23476823 391.8201652 211.84310848 411.31373584 C210.77030543 416.07549458 209.69692924 420.83712381 208.62315369 425.59866333 C208.47433398 426.2586009 208.32551428 426.91853847 208.17218488 427.59847414 C207.57873173 430.23007794 206.9852624 432.86167808 206.39171922 435.49326158 C204.55904823 443.61883849 202.72935116 451.74507575 200.90275669 459.87202072 C199.87332904 464.44894351 198.8410859 469.02522805 197.80809975 473.60134888 C197.33770489 475.68790772 196.8684677 477.77472799 196.40056419 479.86184692 C194.18861664 489.72620239 191.92080113 499.57097706 189.39306641 509.35986328 C189.20243307 510.1102632 189.01179974 510.86066311 188.81538963 511.63380241 C181.7173652 538.56946886 165.13828769 559.99564034 141.3125 574.15625 C106.42976787 593.57211034 65.95832387 595 27 595 C27 572.23 27 549.46 27 526 C36.9 525.67 46.8 525.34 57 525 C84.47706131 523.55880582 84.47706131 523.55880582 107.65625 510.03515625 C113.34407602 500.89164523 113.55943414 490.41501549 111.55053711 480.15551758 C111.36524665 479.13522618 111.17995619 478.11493479 110.98905087 477.06372547 C108.58108345 464.1681323 105.63214957 451.38177275 102.67463756 438.60334992 C102.0125464 435.73753702 101.35578676 432.87051157 100.69889671 430.00350279 C94.05517068 401.01107788 87.2573224 372.05432375 80.4229961 343.10633129 C78.70985649 335.84960502 76.99994534 328.59211876 75.28995788 321.33464921 C71.03526048 303.27781831 66.77429586 285.22246843 62.51171303 267.16749763 C61.84213321 264.3313129 61.17260939 261.49511495 60.50308549 258.65891701 C53.49540685 228.97354451 46.4826849 199.28936361 39.46875 169.60546875 C39.16659451 168.3266791 38.86443901 167.04788944 38.55312729 165.73034859 C35.18291991 151.46702305 31.81192893 137.20388327 28.43939912 122.94110668 C25.20477076 109.26151486 21.9718795 95.5815142 18.74154186 81.90090847 C16.97349746 74.41347121 15.20393196 66.92639709 13.43222558 59.43982548 C12.09083423 53.7709157 10.75215399 48.10136838 9.41445923 42.43158531 C8.86890284 40.12115217 8.32247642 37.81092424 7.77508545 35.50092506 C7.02319677 32.32734925 6.27453837 29.15302708 5.52661133 25.97851562 C5.31328061 25.08150279 5.09994989 24.18448996 4.88015461 23.26029491 C3.0651531 15.53134826 1.56014408 7.80072038 0 0 Z " fill="#9B8430" transform="translate(3054,1634)"/>
<path d="M0 0 C29.7 0 59.4 0 90 0 C95.74285738 28.7142869 95.74285738 28.7142869 97.66186523 39.43237305 C97.88810703 40.68450498 98.11434883 41.93663691 98.34744644 43.22671223 C98.95896514 46.61144643 99.56762238 49.99668908 100.17571616 53.38204002 C100.84059505 57.08029363 101.50834841 60.77802844 102.17573547 64.47583008 C103.32995195 70.87305348 104.48251714 77.27057247 105.63391113 83.66830444 C107.46024494 93.81616822 109.28993592 103.96342522 111.12011719 114.1105957 C111.75249312 117.61692428 112.38484358 121.12325745 113.0171814 124.6295929 C113.1755211 125.50758291 113.3338608 126.38557293 113.49699867 127.2901687 C114.63645764 133.60871526 115.77543617 139.92734831 116.91421509 146.24601746 C121.77526088 173.21743222 126.64492644 200.18728262 131.51953125 227.15625 C131.69352345 228.11887953 131.86751565 229.08150906 132.04678035 230.07330918 C133.94077859 240.55196506 135.83497835 251.0305845 137.72927856 261.50918579 C139.73708333 272.61568373 141.74445485 283.72225995 143.75170898 294.82885742 C143.90985222 295.70389774 144.06799546 296.57893805 144.23093092 297.48049474 C144.84987041 300.90522185 145.4688086 304.3299492 146.08774334 307.75467718 C147.62190949 316.24360795 149.15616185 324.73252315 150.69042969 333.22143555 C150.92941509 334.54371484 151.16840048 335.86599413 151.40738583 337.18827343 C151.93825608 340.12551583 152.46912736 343.06275803 153 346 C153.33 346 153.66 346 154 346 C154.13910923 345.20012193 154.27821846 344.40024385 154.42154312 343.57612705 C154.6211552 342.42835757 154.82076729 341.28058809 155.02642822 340.09803772 C155.13731189 339.46045579 155.24819556 338.82287387 155.36243933 338.16597128 C156.00973314 334.44402832 156.65702959 330.72208583 157.30432987 327.000144 C158.686567 319.05233873 160.06878281 311.10452976 161.45092446 303.15670788 C162.28750179 298.34608762 163.12409404 293.53546995 163.96069336 288.72485352 C164.13309929 287.73348334 164.30550523 286.74211316 164.48313558 285.72070146 C167.00193273 271.23725338 169.5214775 256.75393551 172.04145467 242.27069271 C173.70098624 232.73257518 175.36029117 223.19441823 177.01953125 213.65625 C177.20510377 212.58950586 177.39067629 211.52276171 177.58187222 210.42369199 C182.67000295 181.17457113 187.7491475 151.9239104 192.81647575 122.6711784 C193.97441333 115.98692776 195.13305318 109.30279918 196.29220581 102.61875916 C196.45230279 101.69558008 196.61239976 100.772401 196.77734816 99.8212468 C197.41446094 96.14753129 198.05160236 92.47382074 198.68884015 88.80012691 C200.54116281 78.12141822 202.39110867 67.44230467 204.23703974 56.7624892 C205.38782316 50.10571396 206.5414306 43.44943217 207.69731122 36.79354012 C208.36127471 32.96963957 209.0238789 29.14551587 209.6829586 25.32077026 C210.39236161 21.20406501 211.10784031 17.08844 211.82397461 12.97290039 C212.13601019 11.15307947 212.13601019 11.15307947 212.45434952 9.29649448 C212.64500362 8.20676303 212.83565773 7.11703157 213.03208923 5.99427795 C213.19608687 5.046913 213.36008451 4.09954805 213.52905178 3.12347507 C214 1 214 1 215 0 C217.76938966 -0.09517803 220.51377159 -0.12554265 223.28344727 -0.11352539 C224.58576797 -0.11374443 224.58576797 -0.11374443 225.91439819 -0.1139679 C228.79842586 -0.11326846 231.6823898 -0.10547463 234.56640625 -0.09765625 C236.56037867 -0.09579218 238.55435155 -0.09436823 240.54832458 -0.09336853 C245.80745702 -0.08954248 251.06656203 -0.07971145 256.32568359 -0.06866455 C261.68782175 -0.0584523 267.04996431 -0.05387131 272.41210938 -0.04882812 C282.94141833 -0.03808926 293.47070689 -0.0210118 304 0 C303.37772972 6.68418315 302.22349019 13.06063122 300.71630859 19.59765625 C300.48239599 20.63049523 300.24848339 21.66333422 300.00748253 22.72747135 C299.22580441 26.17356074 298.43709476 29.6180017 297.6484375 33.0625 C297.08493966 35.54054238 296.52190235 38.01868952 295.95928955 40.49693298 C294.74435021 45.84437976 293.52646751 51.19114251 292.30596924 56.537323 C290.34382946 65.13251349 288.3889377 73.72934451 286.43505859 82.32641602 C285.76118303 85.29110195 285.08725422 88.25577577 284.41329956 91.22044373 C284.24492541 91.96112266 284.07655126 92.7018016 283.90307486 93.46492535 C282.69156644 98.7939026 281.47907167 104.12265487 280.2661438 109.4513092 C275.58551583 130.01520881 270.9187251 150.58219795 266.265625 171.15234375 C266.10822255 171.84816323 265.95082011 172.54398271 265.78864789 173.26088762 C264.03857712 180.99748782 262.288978 188.73419463 260.5395813 196.47094727 C258.61168038 204.99707473 256.68277963 213.52297586 254.75366211 222.04882812 C254.42943146 223.48179941 254.10520095 224.91477073 253.78097057 226.34774208 C253.29375017 228.50106134 252.80652896 230.65438042 252.31930488 232.80769885 C250.52830817 240.72316409 248.73752893 248.63867852 246.94677734 256.55419922 C246.78493379 257.26958131 246.62309024 257.98496339 246.45634234 258.72202373 C244.29830646 268.26100137 242.14034316 277.79999544 239.98242092 287.33899879 C239.30815529 290.31955939 238.63388262 293.30011839 237.95960331 296.28067589 C237.62234556 297.77147801 237.28508786 299.26228014 236.9478302 300.75308228 C236.78088561 301.49103747 236.61394102 302.22899267 236.44193751 302.98931015 C235.43275548 307.45028794 234.42363117 311.91127879 233.41454631 316.37227857 C230.12121706 330.93143592 226.826963 345.49038222 223.529055 360.04850316 C222.25892133 365.65544134 220.98903729 371.26243607 219.71923423 376.86944914 C219.40692684 378.24847793 219.0946076 379.62750403 218.78227639 381.00652742 C214.82661254 398.47219238 210.88595483 415.9411169 206.96946716 433.4156189 C205.17577003 441.41866776 203.37642807 449.42044388 201.57555485 457.42188072 C200.18271415 463.61295502 198.79767126 469.80569878 197.4191494 475.99997616 C196.58327873 479.746854 195.73970335 483.49196636 194.89399719 487.23663521 C194.51455787 488.92394963 194.13822309 490.6119664 193.76557922 492.3007946 C186.77280632 523.96740065 175.42888025 552.21642036 147.25 570.6875 C111.74218931 593.07116381 68.78176861 595 28 595 C28 572.23 28 549.46 28 526 C37.24 525.67 46.48 525.34 56 525 C83.5111975 523.6743795 83.5111975 523.6743795 107.140625 510.859375 C114.30372714 500.91448562 113.31525025 490.26366235 111.46850586 478.66064453 C107.91093804 459.77827353 103.43799223 441.05995847 99.078125 422.3515625 C98.5044903 419.8855296 97.93088251 417.41949043 97.3572998 414.95344543 C91.42289573 389.45867714 85.41715721 363.98075253 79.40133667 338.50509644 C77.99865377 332.56405641 76.59696968 326.62278082 75.19529819 320.6815021 C74.38743163 317.25719411 73.57952437 313.83289573 72.77160645 310.40859985 C72.61039606 309.72532202 72.44918567 309.04204419 72.28309011 308.33806098 C71.13775337 303.48374557 69.99220978 298.62947901 68.84655762 293.77523804 C64.45792721 275.18012242 60.0715981 256.58446605 55.6875 237.98828125 C55.38980209 236.72552683 55.09210419 235.46277241 54.78538513 234.1617527 C53.58565792 229.0727812 52.38594979 223.9838052 51.18627167 218.89482212 C49.10158099 210.05166365 47.01667963 201.20855487 44.93164062 192.36547852 C44.33459471 189.83327739 43.73754881 187.30107626 43.14050293 184.76887512 C42.84417465 183.51208261 42.54784637 182.25529011 42.24253845 180.96041298 C37.30638219 160.02500087 32.37090558 139.08942868 27.43599463 118.153723 C26.25395932 113.13911415 25.07188007 108.12451566 23.88977051 103.10992432 C23.7245617 102.4090969 23.55935288 101.70826948 23.38913774 100.98620486 C22.56260499 97.48000254 21.73606619 93.97380164 20.90952301 90.46760178 C19.15499177 83.02483278 17.4006068 75.58202934 15.64641714 68.13917983 C14.31241869 62.47921961 12.97817386 56.8193175 11.6438446 51.15943527 C11.10145368 48.8585745 10.55914242 46.55769494 10.016922 44.25679398 C9.26801208 41.07885885 8.51878215 37.90099928 7.76953125 34.72314453 C7.42078571 33.24246963 7.42078571 33.24246963 7.06499481 31.7318821 C5.89689785 26.77794189 4.7199981 21.82631074 3.52880859 16.87786865 C3.29449631 15.90232466 3.06018402 14.92678066 2.81877136 13.92167473 C2.37503333 12.07644886 1.92942343 10.2316718 1.48164368 8.38742256 C1.28620468 7.57418463 1.09076569 6.76094669 0.8894043 5.92306519 C0.71692673 5.21053526 0.54444916 4.49800533 0.366745 3.76388359 C0 2 0 2 0 0 Z " fill="#46451C" transform="translate(2827,2372)"/>
<path d="M0 0 C31.02 0 62.04 0 94 0 C94 197.34 94 394.68 94 598 C150.1 598 206.2 598 264 598 C264 620.44 264 642.88 264 666 C176.88 666 89.76 666 0 666 C0 446.22 0 226.44 0 0 Z " fill="#9B8430" transform="translate(1856,1444)"/>
<path d="M0 0 C0.58910156 0.45632812 1.17820312 0.91265625 1.78515625 1.3828125 C28.56740309 22.7354011 41.61840287 60.17738944 46.75976562 92.68017578 C47.04794827 95.46301269 47.01470476 98.20391418 47 101 C39.67194294 103.57369241 32.34370584 106.14687143 25.01524162 108.71940422 C21.61196124 109.91408585 18.20874196 111.10894091 14.80566406 112.30419922 C11.51846751 113.4587494 8.23110818 114.61283498 4.94363785 115.76660538 C3.08575674 116.4187812 1.22804234 117.07143186 -0.62966919 117.72409058 C-1.77039886 118.12435455 -2.91112854 118.52461853 -4.08642578 118.93701172 C-5.08570099 119.28786835 -6.0849762 119.63872498 -7.11453247 120.00021362 C-10.0687718 121.02382876 -13.03198045 122.01713385 -16 123 C-17.5118085 121.4881915 -17.42919057 119.92471411 -17.76171875 117.828125 C-21.8568846 93.09892813 -27.09235153 64.34798546 -48.59765625 48.50390625 C-60.78576856 40.87394977 -76.61603541 39.97639888 -90.5078125 42.68359375 C-93.17296242 43.59855263 -95.53418005 44.64042119 -98 46 C-98.7940625 46.43570313 -99.588125 46.87140625 -100.40625 47.3203125 C-111.67703744 54.19549284 -118.03790329 64.82836704 -121.375 77.5 C-124.02711654 92.69441769 -120.75863296 108.27261148 -112 121 C-109.18800199 124.53147407 -106.15839991 127.77724398 -103 131 C-102.09507812 131.93199219 -101.19015625 132.86398438 -100.2578125 133.82421875 C-95.69255623 138.47339229 -91.00168633 142.89861812 -86.08129883 147.16821289 C-82.68633283 150.1561812 -79.40994987 153.26720149 -76.125 156.375 C-71.00956429 161.19392282 -65.85689534 165.95712365 -60.61328125 170.63671875 C-56.58778454 174.27711562 -52.63452646 177.99409931 -48.67211914 181.70288086 C-43.79700421 186.26351187 -38.88800782 190.7846899 -33.9609375 195.2890625 C-30.24537595 198.6869274 -26.54811555 202.10457485 -22.8527832 205.52441406 C-20.2480926 207.93304433 -17.63729168 210.33368418 -15.00390625 212.7109375 C-4.39731789 222.31743585 6.05445233 232.10565388 14.92578125 243.37109375 C16.32381911 245.14299484 17.76013515 246.88527123 19.23046875 248.59765625 C45.36335463 279.13849879 54.73526117 318.17936639 51.69140625 357.671875 C48.79583424 387.93371227 37.00871516 414.54417216 14 435 C-3.68205139 449.00120275 -24.88493806 457.18792882 -47 461 C-48.08796875 461.20496094 -49.1759375 461.40992187 -50.296875 461.62109375 C-76.7330402 465.80585789 -105.87084162 464.45584993 -131 455 C-131.6595166 454.75266113 -132.3190332 454.50532227 -132.99853516 454.25048828 C-164.98756241 441.93869306 -187.87504566 416.20750628 -201.7421875 385.38671875 C-209.17438838 368.11413514 -214.57664398 347.89617974 -214 329 C-198.64920022 323.97566647 -183.22645917 319.18798023 -167.78057861 314.46539307 C-165.67462999 313.8211156 -163.56912051 313.17540101 -161.46405029 312.52825928 C-158.46950825 311.60831422 -155.47330383 310.69400162 -152.4765625 309.78125 C-151.56505432 309.5003653 -150.65354614 309.21948059 -149.7144165 308.93008423 C-148.87360535 308.67536346 -148.03279419 308.4206427 -147.16650391 308.15820312 C-146.06382675 307.82133484 -146.06382675 307.82133484 -144.93887329 307.47766113 C-143 307 -143 307 -140 307 C-139.78234985 308.15278442 -139.78234985 308.15278442 -139.56030273 309.32885742 C-132.0110338 350.27815699 -132.0110338 350.27815699 -109 384 C-108.06607422 384.87011719 -108.06607422 384.87011719 -107.11328125 385.7578125 C-94.38516833 396.3779151 -77.756177 397.10437681 -62 396 C-50.971174 394.42555061 -41.60155883 388.80638693 -34.56640625 380.26953125 C-24.7623258 366.06461669 -23.9529044 348.07334722 -26.6171875 331.46875 C-29.43146496 317.55129466 -36.7053876 305.531538 -46 295 C-46.69867187 294.16984375 -47.39734375 293.3396875 -48.1171875 292.484375 C-52.72734182 287.13593974 -57.64731999 282.65783042 -63.1796875 278.28125 C-66.05844255 275.95272791 -68.77965064 273.51109172 -71.5 271 C-75.07792463 267.70668301 -78.71539666 264.55348679 -82.5 261.5 C-86.28460334 258.44651321 -89.92207537 255.29331699 -93.5 252 C-97.9698512 247.88621091 -102.59044893 244.02912703 -107.31640625 240.21484375 C-109.94708557 238.04367173 -112.47942424 235.79758643 -115 233.5 C-118.41739372 230.38541332 -121.9052235 227.4081338 -125.5 224.5 C-130.02097529 220.83985922 -134.36689392 217.0321816 -138.66796875 213.1171875 C-140.75823889 211.21948831 -142.86986115 209.35266585 -145 207.5 C-145.64195312 206.93796875 -146.28390625 206.3759375 -146.9453125 205.796875 C-148.41543055 204.51122043 -149.88989035 203.23052386 -151.3671875 201.953125 C-180.82173536 176.07716707 -200.23877604 142.95810413 -202.83984375 103.421875 C-204.43409571 69.35932091 -198.43059605 36.93384426 -175.5 10.6875 C-159.54903913 -6.33602548 -139.51620375 -16.61129056 -117 -22 C-116.32678711 -22.16516113 -115.65357422 -22.33032227 -114.95996094 -22.50048828 C-76.72313661 -31.39298687 -30.53388189 -25.6804077 0 0 Z " fill="#46451C" transform="translate(3369,2391)"/>
<path d="M0 0 C29.37 0 58.74 0 89 0 C89 45.54 89 91.08 89 138 C114.08 138 139.16 138 165 138 C165 157.8 165 177.6 165 198 C139.92 198 114.84 198 89 198 C89.06143223 238.2730667 89.13351523 278.54604996 89.22898628 318.81904734 C89.24025393 323.57776958 89.25139246 328.33649211 89.26245117 333.09521484 C89.2657567 334.51622957 89.2657567 334.51622957 89.269129 335.96595167 C89.30446454 351.28861946 89.32934979 366.61128721 89.35034702 381.9339806 C89.37213892 397.66611336 89.40522145 413.39819342 89.44870156 429.13028133 C89.47515995 438.83137122 89.49289809 448.53239549 89.49934604 458.23351966 C89.50461775 464.89338011 89.52089431 471.55315811 89.54566566 478.21297432 C89.5596198 482.05060381 89.56887441 485.88808593 89.56500816 489.72574234 C89.56093196 493.89862577 89.58010858 498.07109525 89.60127258 502.243927 C89.59642501 503.44046878 89.59157743 504.63701056 89.58658296 505.86981118 C89.69047275 518.34547998 91.3770829 531.79681581 99.45703125 541.8046875 C107.51704085 549.68820054 120.17825602 551.12908934 130.9375 551.1875 C141.98006557 550.95903313 152.99322309 549.91723141 164 549 C164 570.78 164 592.56 164 615 C134.80400482 621.48799893 98.29563561 624.44558059 69 617 C68.3076123 616.82839355 67.61522461 616.65678711 66.90185547 616.47998047 C46.37075877 611.19974668 28.01320723 599.42550019 16.83374023 581.07177734 C4.33131143 559.53400495 -0.3577354 535.50525848 -0.24050903 510.78199768 C-0.24138405 509.42024132 -0.24314043 508.05848529 -0.24568737 506.69673103 C-0.25010691 503.00226218 -0.24223273 499.30791183 -0.23213124 495.61345804 C-0.2234201 491.61163966 -0.22642227 487.60982691 -0.22793579 483.60800171 C-0.22897984 476.69031275 -0.22275375 469.77266178 -0.21146011 462.85498238 C-0.19514253 452.85342784 -0.18999073 442.8518915 -0.18748413 432.8503251 C-0.1831168 416.61985153 -0.16983393 400.38939816 -0.15087891 384.15893555 C-0.13249512 368.40112407 -0.11835087 352.6433181 -0.10986328 336.88549805 C-0.10907511 335.42628799 -0.10907511 335.42628799 -0.10827102 333.93759895 C-0.10566077 329.0568672 -0.10313339 324.17613541 -0.10064721 319.2954036 C-0.0799447 278.86358756 -0.04419153 238.43179669 0 198 C-16.5 198 -33 198 -50 198 C-50 178.2 -50 158.4 -50 138 C-33.5 138 -17 138 0 138 C0 92.46 0 46.92 0 0 Z " fill="#46451C" transform="translate(2305,2234)"/>
<path d="M0 0 C29.37 0 58.74 0 89 0 C89 157.08 89 314.16 89 476 C59.63 476 30.26 476 0 476 C0 318.92 0 161.84 0 0 Z " fill="#9B8430" transform="translate(2180,1634)"/>
<path d="M0 0 C47.83503851 3.71409938 98.40464859 20.02150777 137 49 C137.91652344 49.68578125 138.83304688 50.3715625 139.77734375 51.078125 C182.02545188 83.9155171 203.06417885 130.87262935 209.75 183.1875 C212.19347294 203.60866001 212.51665651 223.9246114 211.0625 244.4375 C210.97548828 245.74654297 210.88847656 247.05558594 210.79882812 248.40429688 C209.6347571 265.3652429 209.6347571 265.3652429 208 267 C153.45677062 268.32800906 91.17299527 238.3427069 52 202 C11.98499974 163.59001047 -1.9437433 106.00775015 -3.1875 52.30078125 C-3.42458134 34.84080651 -2.67813209 17.27515832 0 0 Z " fill="#46451C" transform="translate(922,1509)"/>
<path d="M0 0 C0.17015625 0.67764404 0.3403125 1.35528809 0.515625 2.0534668 C4.41948715 17.44698708 8.80250782 32.36619422 15 47 C15.31549805 47.74540039 15.63099609 48.49080078 15.95605469 49.25878906 C37.61582623 99.51394811 80.94443222 136.33001636 131 157 C145.11813639 162.60744859 159.41089375 167.75508394 174 172 C173.67 172.66 173.34 173.32 173 174 C171.09594727 174.5625 171.09594727 174.5625 168.56640625 175 C167.61999268 175.1640332 166.6735791 175.32806641 165.69848633 175.49707031 C164.66361084 175.66303711 163.62873535 175.82900391 162.5625 176 C161.49733154 176.17370117 160.43216309 176.34740234 159.3347168 176.52636719 C106.08960531 184.79850722 52.57506586 178.54157224 8.27734375 146.2421875 C-6.81252807 134.96826293 -20.42425046 121.8538379 -32 107 C-32.80050781 105.99324219 -33.60101562 104.98648437 -34.42578125 103.94921875 C-79 47.48215235 -79 47.48215235 -79 21 C-54.78218792 11.28437963 -26.49714508 0 0 0 Z " fill="#46451C" transform="translate(899,1621)"/>
<path d="M0 0 C29.37 0 58.74 0 89 0 C89 30.69 89 61.38 89 93 C59.63 93 30.26 93 0 93 C0 62.31 0 31.62 0 0 Z " fill="#9B8430" transform="translate(2180,1472)"/>
</svg>
